<mxfile host="app.diagrams.net" agent="Mozilla/5.0 (Windows NT 10.0; Win64; x64) AppleWebKit/537.36 (KHTML, like Gecko) Chrome/141.0.0.0 Safari/537.36 Edg/141.0.0.0" version="28.2.7">
  <diagram id="C5RBs43oDa-KdzZeNtuy" name="Page-1">
    <mxGraphModel dx="950" dy="521" grid="1" gridSize="10" guides="1" tooltips="1" connect="1" arrows="1" fold="1" page="1" pageScale="1" pageWidth="827" pageHeight="1169" math="0" shadow="0">
      <root>
        <mxCell id="WIyWlLk6GJQsqaUBKTNV-0" />
        <mxCell id="WIyWlLk6GJQsqaUBKTNV-1" parent="WIyWlLk6GJQsqaUBKTNV-0" />
        <mxCell id="6_Co9M0bwZ1HitSA6oAc-36" value="" style="rounded=1;whiteSpace=wrap;html=1;" vertex="1" parent="WIyWlLk6GJQsqaUBKTNV-1">
          <mxGeometry x="480" y="130" width="320" height="360" as="geometry" />
        </mxCell>
        <mxCell id="WIyWlLk6GJQsqaUBKTNV-3" value="G2云台glict工站&lt;div&gt;电脑&lt;/div&gt;" style="rounded=1;whiteSpace=wrap;html=1;fontSize=12;glass=0;strokeWidth=1;shadow=0;fillColor=#dae8fc;strokeColor=#6c8ebf;" parent="WIyWlLk6GJQsqaUBKTNV-1" vertex="1">
          <mxGeometry x="40" y="30" width="185" height="90" as="geometry" />
        </mxCell>
        <mxCell id="6_Co9M0bwZ1HitSA6oAc-6" value="" style="shape=flexArrow;endArrow=classic;startArrow=classic;html=1;rounded=0;entryX=0.5;entryY=1;entryDx=0;entryDy=0;exitX=0.5;exitY=0;exitDx=0;exitDy=0;fillColor=#ffe6cc;strokeColor=#d79b00;" edge="1" parent="WIyWlLk6GJQsqaUBKTNV-1" source="6_Co9M0bwZ1HitSA6oAc-8" target="WIyWlLk6GJQsqaUBKTNV-3">
          <mxGeometry width="100" height="100" relative="1" as="geometry">
            <mxPoint x="133" y="210" as="sourcePoint" />
            <mxPoint x="290" y="240" as="targetPoint" />
          </mxGeometry>
        </mxCell>
        <mxCell id="6_Co9M0bwZ1HitSA6oAc-7" value="USB串口" style="edgeLabel;html=1;align=center;verticalAlign=middle;resizable=0;points=[];fontColor=#FFFFFF;labelBackgroundColor=#001933;fontSize=13;" vertex="1" connectable="0" parent="6_Co9M0bwZ1HitSA6oAc-6">
          <mxGeometry x="-0.0032" y="1" relative="1" as="geometry">
            <mxPoint as="offset" />
          </mxGeometry>
        </mxCell>
        <mxCell id="6_Co9M0bwZ1HitSA6oAc-8" value="ESP32" style="whiteSpace=wrap;html=1;aspect=fixed;fillColor=#f0a30a;strokeColor=#BD7000;fontColor=#000000;" vertex="1" parent="WIyWlLk6GJQsqaUBKTNV-1">
          <mxGeometry x="92.5" y="235" width="80" height="80" as="geometry" />
        </mxCell>
        <mxCell id="6_Co9M0bwZ1HitSA6oAc-9" value="&lt;font style=&quot;font-size: 16px;&quot;&gt;测试转盘&lt;/font&gt;" style="ellipse;whiteSpace=wrap;html=1;aspect=fixed;fillColor=#808080;fontColor=#ffffff;strokeColor=#432D57;" vertex="1" parent="WIyWlLk6GJQsqaUBKTNV-1">
          <mxGeometry x="550" y="190" width="170" height="170" as="geometry" />
        </mxCell>
        <mxCell id="6_Co9M0bwZ1HitSA6oAc-12" value="" style="group;fontSize=14;" vertex="1" connectable="0" parent="WIyWlLk6GJQsqaUBKTNV-1">
          <mxGeometry x="569" y="360" width="130" height="130" as="geometry" />
        </mxCell>
        <mxCell id="6_Co9M0bwZ1HitSA6oAc-11" value="" style="verticalLabelPosition=bottom;align=center;dashed=0;html=1;verticalAlign=top;shape=mxgraph.pid.engines.turbine;direction=south;" vertex="1" parent="6_Co9M0bwZ1HitSA6oAc-12">
          <mxGeometry width="130" height="130" as="geometry" />
        </mxCell>
        <mxCell id="6_Co9M0bwZ1HitSA6oAc-10" value="M" style="verticalLabelPosition=middle;shadow=0;dashed=0;align=center;html=1;verticalAlign=middle;strokeWidth=1;shape=ellipse;aspect=fixed;fontSize=35;" vertex="1" parent="6_Co9M0bwZ1HitSA6oAc-12">
          <mxGeometry x="26" y="9.285714285714286" width="78" height="78" as="geometry" />
        </mxCell>
        <mxCell id="6_Co9M0bwZ1HitSA6oAc-24" value="转盘步进电机" style="text;html=1;whiteSpace=wrap;strokeColor=none;fillColor=none;align=center;verticalAlign=middle;rounded=0;" vertex="1" parent="6_Co9M0bwZ1HitSA6oAc-12">
          <mxGeometry x="25" y="87.29000000000002" width="80" height="30" as="geometry" />
        </mxCell>
        <mxCell id="6_Co9M0bwZ1HitSA6oAc-15" value="" style="shape=flexArrow;endArrow=classic;html=1;rounded=0;exitX=0;exitY=1;exitDx=0;exitDy=0;" edge="1" parent="WIyWlLk6GJQsqaUBKTNV-1" source="6_Co9M0bwZ1HitSA6oAc-9">
          <mxGeometry width="50" height="50" relative="1" as="geometry">
            <mxPoint x="435" y="310" as="sourcePoint" />
            <mxPoint x="545" y="370" as="targetPoint" />
          </mxGeometry>
        </mxCell>
        <mxCell id="6_Co9M0bwZ1HitSA6oAc-16" value="TOF1" style="edgeLabel;html=1;align=center;verticalAlign=middle;resizable=0;points=[];fontSize=15;fontColor=#FFFF33;labelBackgroundColor=#001933;" vertex="1" connectable="0" parent="6_Co9M0bwZ1HitSA6oAc-15">
          <mxGeometry x="0.5779" y="1" relative="1" as="geometry">
            <mxPoint x="-22" y="26" as="offset" />
          </mxGeometry>
        </mxCell>
        <mxCell id="6_Co9M0bwZ1HitSA6oAc-18" value="" style="shape=flexArrow;endArrow=classic;html=1;rounded=0;exitX=0;exitY=0;exitDx=0;exitDy=0;" edge="1" parent="WIyWlLk6GJQsqaUBKTNV-1" source="6_Co9M0bwZ1HitSA6oAc-9">
          <mxGeometry width="50" height="50" relative="1" as="geometry">
            <mxPoint x="525" y="270" as="sourcePoint" />
            <mxPoint x="540" y="180" as="targetPoint" />
          </mxGeometry>
        </mxCell>
        <mxCell id="6_Co9M0bwZ1HitSA6oAc-19" value="TOF2" style="edgeLabel;html=1;align=center;verticalAlign=middle;resizable=0;points=[];labelBackgroundColor=#001933;fontColor=#FFFF33;fontSize=14;" vertex="1" connectable="0" parent="6_Co9M0bwZ1HitSA6oAc-18">
          <mxGeometry x="0.5779" y="1" relative="1" as="geometry">
            <mxPoint x="-23" y="-26" as="offset" />
          </mxGeometry>
        </mxCell>
        <mxCell id="6_Co9M0bwZ1HitSA6oAc-20" value="" style="shape=flexArrow;endArrow=classic;html=1;rounded=0;" edge="1" parent="WIyWlLk6GJQsqaUBKTNV-1" source="6_Co9M0bwZ1HitSA6oAc-9">
          <mxGeometry width="50" height="50" relative="1" as="geometry">
            <mxPoint x="775" y="325" as="sourcePoint" />
            <mxPoint x="735" y="370" as="targetPoint" />
          </mxGeometry>
        </mxCell>
        <mxCell id="6_Co9M0bwZ1HitSA6oAc-21" value="TOF4" style="edgeLabel;html=1;align=center;verticalAlign=middle;resizable=0;points=[];labelBackgroundColor=#001933;fontColor=#FFFF33;fontSize=14;" vertex="1" connectable="0" parent="6_Co9M0bwZ1HitSA6oAc-20">
          <mxGeometry x="0.5779" y="1" relative="1" as="geometry">
            <mxPoint x="27" y="28" as="offset" />
          </mxGeometry>
        </mxCell>
        <mxCell id="6_Co9M0bwZ1HitSA6oAc-22" value="" style="shape=flexArrow;endArrow=classic;html=1;rounded=0;exitX=1;exitY=0;exitDx=0;exitDy=0;" edge="1" parent="WIyWlLk6GJQsqaUBKTNV-1" source="6_Co9M0bwZ1HitSA6oAc-9">
          <mxGeometry width="50" height="50" relative="1" as="geometry">
            <mxPoint x="775" y="205" as="sourcePoint" />
            <mxPoint x="735" y="180" as="targetPoint" />
          </mxGeometry>
        </mxCell>
        <mxCell id="6_Co9M0bwZ1HitSA6oAc-23" value="TOF3" style="edgeLabel;html=1;align=center;verticalAlign=middle;resizable=0;points=[];labelBackgroundColor=#001933;fontSize=14;fontColor=#FFFF33;" vertex="1" connectable="0" parent="6_Co9M0bwZ1HitSA6oAc-22">
          <mxGeometry x="0.5779" y="1" relative="1" as="geometry">
            <mxPoint x="34" y="-16" as="offset" />
          </mxGeometry>
        </mxCell>
        <mxCell id="6_Co9M0bwZ1HitSA6oAc-25" value="STM32&lt;div&gt;串口转接板&lt;/div&gt;" style="rounded=1;whiteSpace=wrap;html=1;fillColor=#647687;fontColor=#ffffff;strokeColor=#314354;" vertex="1" parent="WIyWlLk6GJQsqaUBKTNV-1">
          <mxGeometry x="260" y="245" width="120" height="60" as="geometry" />
        </mxCell>
        <mxCell id="6_Co9M0bwZ1HitSA6oAc-27" value="" style="shape=flexArrow;endArrow=classic;startArrow=classic;html=1;rounded=0;entryX=1;entryY=0.5;entryDx=0;entryDy=0;exitX=0;exitY=0.5;exitDx=0;exitDy=0;fillColor=#f9f7ed;strokeColor=#36393d;" edge="1" parent="WIyWlLk6GJQsqaUBKTNV-1" source="6_Co9M0bwZ1HitSA6oAc-25" target="6_Co9M0bwZ1HitSA6oAc-8">
          <mxGeometry width="100" height="100" relative="1" as="geometry">
            <mxPoint x="210" y="315" as="sourcePoint" />
            <mxPoint x="210" y="200" as="targetPoint" />
          </mxGeometry>
        </mxCell>
        <mxCell id="6_Co9M0bwZ1HitSA6oAc-28" value="串口" style="edgeLabel;html=1;align=center;verticalAlign=middle;resizable=0;points=[];fontColor=#FFFFFF;labelBackgroundColor=#001933;fontSize=13;" vertex="1" connectable="0" parent="6_Co9M0bwZ1HitSA6oAc-27">
          <mxGeometry x="-0.0032" y="1" relative="1" as="geometry">
            <mxPoint as="offset" />
          </mxGeometry>
        </mxCell>
        <mxCell id="6_Co9M0bwZ1HitSA6oAc-30" value="" style="shape=flexArrow;endArrow=classic;startArrow=classic;html=1;rounded=0;entryX=1;entryY=0.5;entryDx=0;entryDy=0;fillColor=#f9f7ed;strokeColor=#36393d;exitX=0.004;exitY=0.402;exitDx=0;exitDy=0;exitPerimeter=0;" edge="1" parent="WIyWlLk6GJQsqaUBKTNV-1" source="6_Co9M0bwZ1HitSA6oAc-36" target="6_Co9M0bwZ1HitSA6oAc-25">
          <mxGeometry width="100" height="100" relative="1" as="geometry">
            <mxPoint x="390" y="410" as="sourcePoint" />
            <mxPoint x="240" y="220" as="targetPoint" />
          </mxGeometry>
        </mxCell>
        <mxCell id="6_Co9M0bwZ1HitSA6oAc-31" value="&lt;div&gt;&lt;span style=&quot;background-color: light-dark(rgb(0, 25, 51), rgb(201, 222, 245)); color: light-dark(rgb(255, 255, 255), rgb(18, 18, 18));&quot;&gt;串口&lt;/span&gt;&lt;/div&gt;" style="edgeLabel;html=1;align=center;verticalAlign=middle;resizable=0;points=[];fontColor=#FFFFFF;labelBackgroundColor=#001933;fontSize=13;" vertex="1" connectable="0" parent="6_Co9M0bwZ1HitSA6oAc-30">
          <mxGeometry x="-0.0032" y="1" relative="1" as="geometry">
            <mxPoint as="offset" />
          </mxGeometry>
        </mxCell>
        <mxCell id="6_Co9M0bwZ1HitSA6oAc-35" value="" style="points=[[0,0.5,0],[0.19,0.02,0],[0.59,0,0],[0.985,0.02,0],[1,0.5,0],[0.985,0.98,0],[0.59,1,0],[0.19,0.98,0]];verticalLabelPosition=bottom;sketch=0;html=1;verticalAlign=top;aspect=fixed;align=center;pointerEvents=1;shape=mxgraph.cisco19.camera;fillColor=#005073;strokeColor=none;direction=north;" vertex="1" parent="WIyWlLk6GJQsqaUBKTNV-1">
          <mxGeometry x="615" y="20" width="50" height="90" as="geometry" />
        </mxCell>
        <mxCell id="6_Co9M0bwZ1HitSA6oAc-13" value="" style="shape=flexArrow;endArrow=classic;html=1;rounded=0;exitX=0.5;exitY=1;exitDx=0;exitDy=0;fontSize=14;" edge="1" parent="WIyWlLk6GJQsqaUBKTNV-1" source="6_Co9M0bwZ1HitSA6oAc-8">
          <mxGeometry width="50" height="50" relative="1" as="geometry">
            <mxPoint x="132.5" y="360" as="sourcePoint" />
            <mxPoint x="635" y="490" as="targetPoint" />
            <Array as="points">
              <mxPoint x="133" y="560" />
              <mxPoint x="465" y="560" />
              <mxPoint x="635" y="560" />
            </Array>
          </mxGeometry>
        </mxCell>
        <mxCell id="6_Co9M0bwZ1HitSA6oAc-14" value="电机控制" style="edgeLabel;html=1;align=center;verticalAlign=middle;resizable=0;points=[];fontColor=#FF3333;labelBackgroundColor=#1A1A1A;fontSize=14;" vertex="1" connectable="0" parent="6_Co9M0bwZ1HitSA6oAc-13">
          <mxGeometry x="-0.7675" y="-2" relative="1" as="geometry">
            <mxPoint y="16" as="offset" />
          </mxGeometry>
        </mxCell>
      </root>
    </mxGraphModel>
  </diagram>
</mxfile>
